<?xml version="1.0" encoding="utf-8"?>
<!-- Generator: Adobe Illustrator 22.0.1, SVG Export Plug-In . SVG Version: 6.00 Build 0)  -->
<svg version="1.1" id="Layer_1" xmlns="http://www.w3.org/2000/svg" xmlns:xlink="http://www.w3.org/1999/xlink" x="0px" y="0px"
	 viewBox="0 0 20 60" style="enable-background:new 0 0 20 60;" xml:space="preserve">
<style type="text/css">
	.st0{fill:#808080;}
</style>
<path class="st0" d="M16.2,23.8h-0.9v1.8h-2.6v-1.8H7.4v1.8H4.6v-1.8H3.8c-1,0-1.8,0.8-1.8,1.8v10.6c0,1,0.8,1.8,1.8,1.8h12.5
	c1,0,1.8-0.8,1.8-1.8V25.6C18,24.6,17.2,23.8,16.2,23.8z M16.2,36.3H3.8v-7.1h12.5C16.2,29.2,16.2,36.3,16.2,36.3z M6.9,22H5.1v3.1
	h1.8C6.9,25.2,6.9,22,6.9,22z M14.9,22h-1.8v3.1h1.8V22z"/>
</svg>
